# xmcd CD database file
#
# Track frame offsets:
#	150
#	37550
#	55912
#	94361
#	108183
#	121369
#	135796
#	150614
#	161312
#	174928
#	189231
#	202603
#	215490
#	228894
#	240228
#	251310
#	265528
#	277295
#	290697
#	301916
#	314937
#
# Disc length: 4377 seconds
#
# Revision: 0
# Processed by: cddbd v1.5.2PL0 Copyright (c) Steve Scherf et al.
# Submitted via: CDex 1.70beta2
#
DISCID=0d111715
DTITLE=Various Artist - Jazz Roads CD179 - Swing - Lester Young Vol.7 (1944-46)
DYEAR=2006
DGENRE=Jazz
TTITLE0=Jubilee All Stars - I Got Rhythm
TTITLE1=Jubilee All Stars - Oh Lady Be Good
TTITLE2=Jubilee All Stars - Sweet Georgia Brown
TTITLE3=Lester Young And His Band - You're Driving Me Crazy
TTITLE4=Lester Young And His Band - New Lester Leaps In
TTITLE5=Lester Young And His Band - Lester's Be Bop Boogie
TTITLE6=Lester Young And His Band - She's Funny That Way
TTITLE7=Lester Young And His Band - Sunday
TTITLE8=Lester Young And His Band - S.M. Blues
TTITLE9=Lester Young And His Band - Jumpin' With Symphony Sid
TTITLE10=Lester Young And His Band - No Eyes Blues
TTITLE11=Lester Young And His Band - Sax-O-Be-Bop
TTITLE12=Lester Young And His Band - On The Sunny Side Of The Street
TTITLE13=Lester Young And His Band - Easy Does It
TTITLE14=Lester Young And His Band - Easy Does It
TTITLE15=Lester Young And His Band - Movin' With Lester
TTITLE16=Lester Young And His Band - One O'Clock Jump
TTITLE17=Lester Young And His Band - Jumpin' At The Woodside (Every Tub)
TTITLE18=Lester Young And His Band - Confessin'
TTITLE19=Lester Young And His Band - Lester Smoothes It Out
TTITLE20=Lester Young And His Band - Just Cooling
EXTD=YEAR: 2006
EXTT0=
EXTT1=
EXTT2=
EXTT3=
EXTT4=
EXTT5=
EXTT6=
EXTT7=
EXTT8=
EXTT9=
EXTT10=
EXTT11=
EXTT12=
EXTT13=
EXTT14=
EXTT15=
EXTT16=
EXTT17=
EXTT18=
EXTT19=
EXTT20=
PLAYORDER=
